<?xml version="1.0" standalone="no"?>
<!DOCTYPE svg PUBLIC "-//W3C//DTD SVG 20010904//EN"
 "http://www.w3.org/TR/2001/REC-SVG-20010904/DTD/svg10.dtd">
<svg version="1.0" xmlns="http://www.w3.org/2000/svg"
 width="256.000000pt" height="256.000000pt" viewBox="0 0 256.000000 256.000000"
 preserveAspectRatio="xMidYMid meet">

<g transform="translate(0.000000,256.000000) scale(0.100000,-0.100000)"
fill="#2563EB" stroke="none">
<path d="M1160 2554 c-14 -2 -59 -9 -100 -15 -95 -14 -255 -66 -351 -114 -240
-122 -455 -338 -579 -584 -41 -82 -94 -244 -111 -341 -17 -97 -17 -343 0 -440
46 -259 168 -490 360 -681 252 -253 544 -373 901 -373 170 0 260 14 412 64
310 104 586 346 738 649 41 82 94 244 111 341 17 97 17 343 0 440 -17 97 -70
259 -111 341 -93 185 -270 389 -430 496 -143 96 -311 166 -474 199 -71 14
-319 27 -366 18z m590 -550 l-70 -119 -91 -53 -91 -52 -43 47 c-23 27 -43 52
-45 57 -2 9 401 248 407 242 2 -2 -28 -57 -67 -122z m98 -1150 l-3 -427 -73
118 -73 118 3 146 3 146 35 5 c40 7 83 28 78 38 -67 128 -72 144 -78 271 -5
88 -12 136 -23 158 -14 27 -17 65 -17 237 l0 205 73 125 72 125 3 -419 c1
-230 1 -611 0 -846z m-495 1046 c99 -94 164 -178 204 -266 14 -33 46 -81 70
-109 71 -82 85 -122 93 -266 6 -112 10 -132 38 -194 18 -37 31 -70 29 -72 -2
-1 -30 -8 -63 -14 -73 -13 -158 -5 -246 25 -43 14 -68 18 -68 11 0 -31 34
-135 61 -186 37 -69 70 -102 150 -148 55 -33 67 -46 131 -150 l70 -114 -44 25
c-23 14 -349 202 -723 418 -374 216 -682 395 -685 398 -3 2 56 2 130 0 l135
-5 112 -66 111 -65 36 74 c36 76 121 172 226 256 l44 35 -41 47 c-52 59 -114
178 -146 281 -28 93 -42 175 -29 175 15 0 180 -107 246 -159 67 -54 162 -150
191 -194 10 -15 20 -25 23 -23 11 12 -66 111 -139 180 l-79 74 0 54 c0 29 3
63 6 75 6 22 7 22 37 5 16 -9 70 -55 120 -102z m-305 -297 c26 -45 30 -59 20
-68 -7 -7 -108 -67 -225 -133 l-212 -122 -83 1 c-46 0 -105 4 -131 7 l-49 7
314 182 c172 100 318 181 323 182 6 0 25 -25 43 -56z"/>
</g>
</svg>
